# xmcd CD database file
#
# Track frame offsets:
#	150
#	12544
#	30757
#	45669
#	58657
#	77441
#	91056
#	103244
#	121314
#	133846
#	148144
#	166051
#	181419
#	191649
#
# Disc length: 2722 seconds
#
# Revision: 0
# Processed by: cddbd v1.5.2PL0 Copyright (c) Steve Scherf et al.
# Submitted via: CDex 1.77
#
DISCID=b50aa00e
DTITLE=Sarah Vaughan - The days of wine and roses
DYEAR=1900
DGENRE=Jazz
TTITLE0=Take the a train
TTITLE1=Lulaby of Birdland
TTITLE2=Star dust
TTITLE3=Moon river
TTITLE4=I left my heart in san francisco
TTITLE5=My funny valentine
TTITLE6=he days of wine and roses
TTITLE7=Smoke gets in your eye
TTITLE8=Tea for two
TTITLE9=Day by day
TTITLE10=The shadow of your smile
TTITLE11=Michelle
TTITLE12=Yesterday
TTITLE13=Lover's concerto
EXTD=
EXTT0=
EXTT1=
EXTT2=
EXTT3=
EXTT4=
EXTT5=
EXTT6=
EXTT7=
EXTT8=
EXTT9=
EXTT10=
EXTT11=
EXTT12=
EXTT13=
PLAYORDER=
